<?xml version="1.0" standalone="no"?><!DOCTYPE svg PUBLIC "-//W3C//DTD SVG 1.1//EN" "http://www.w3.org/Graphics/SVG/1.1/DTD/svg11.dtd"><svg t="1524972457427" class="icon" style="" viewBox="0 0 1024 1024" version="1.1" xmlns="http://www.w3.org/2000/svg" p-id="3301" xmlns:xlink="http://www.w3.org/1999/xlink" width="32" height="32"><defs><style type="text/css"></style></defs><path d="M282.4 460C344 580.8 443.2 680 564 741.6L657.6 648c11.2-11.2 28.8-15.2 43.2-10.4 48 16 100 24 152.8 24 23.2 0 42.4 19.2 42.4 42.4v148.8c0 23.2-19.2 42.4-42.4 42.4C452.8 896 128 571.2 128 170.4c0-23.2 19.2-42.4 42.4-42.4H320c23.2 0 42.4 18.4 42.4 41.6 0 53.6 8.8 104.8 24 152.8 4.8 15.2 1.6 31.2-10.4 43.2L282.4 460z" p-id="3302" fill="#1296db"></path></svg>