<?xml version="1.0" standalone="no"?><!DOCTYPE svg PUBLIC "-//W3C//DTD SVG 1.1//EN" "http://www.w3.org/Graphics/SVG/1.1/DTD/svg11.dtd"><svg t="1525153943574" class="icon" style="" viewBox="0 0 1024 1024" version="1.1" xmlns="http://www.w3.org/2000/svg" p-id="4061" xmlns:xlink="http://www.w3.org/1999/xlink" width="64" height="64"><defs><style type="text/css"></style></defs><path d="M832 480H192a32 32 0 0 0 0 64h640a32 32 0 0 0 0-64M800.256 160H223.712a63.808 63.808 0 0 0-63.68 63.744V384a32 32 0 1 0 64 0l-0.32-160 576.32-0.256V384a32 32 0 1 0 64 0V223.744A63.84 63.84 0 0 0 800.224 160M832 608a32 32 0 0 0-32 32l0.256 160L224 800.256V640a32 32 0 0 0-64 0v160.256C160 835.392 188.608 864 223.744 864h576.512A63.84 63.84 0 0 0 864 800.256V640a32 32 0 0 0-32-32" p-id="4062"></path></svg>